<svg width="180" height="40" viewBox="0 0 180 40" fill="none" xmlns="http://www.w3.org/2000/svg">
<path d="M28.7109 25.0808C28.7109 29.0146 25.721 32.902 20.6036 32.902H6.66669V7.22461H17.9966C22.4412 7.22461 25.449 10.4098 25.449 13.8195C25.449 16.5912 23.5148 18.4395 22.5539 18.4395C25.449 18.4395 28.7109 21.0829 28.7109 25.0826V25.0808ZM10.6962 11.1424V17.5466L18.188 17.5305C20.1867 17.5466 21.6575 16.1759 21.6575 14.3453C21.6575 12.5148 20.0579 11.1441 18.2345 11.1441H10.6962V11.1424ZM24.7619 24.8099C24.7619 22.8671 23.0997 21.0829 20.1724 21.0829L10.6962 21.0989V28.9683H20.235C22.5539 28.9683 24.7601 27.2964 24.7601 24.8099H24.7619Z" fill="white"/>
<path d="M47.4683 28.888V32.902H31.9246V7.22461H35.9702V28.888H47.4683Z" fill="white"/>
<path d="M48.3789 20.0954C48.3789 12.7679 54.3606 6.77722 61.7003 6.77722C69.04 6.77722 75.0378 12.7661 75.0378 20.0936C75.0378 27.4211 69.0257 33.3155 61.686 33.3155C54.3462 33.3155 48.3807 27.3587 48.3807 20.0936L48.3789 20.0954ZM70.9421 20.0633C70.9421 14.9817 66.7676 10.8393 61.6824 10.8393C56.5972 10.8393 52.4549 14.9817 52.4549 20.0633C52.4549 25.145 56.5972 29.2392 61.6824 29.2392C66.7676 29.2392 70.9421 25.1129 70.9421 20.0633Z" fill="white"/>
<path d="M77.2601 28.3942L80.4576 26.1163C81.6081 28.1233 83.7517 29.2712 86.2299 29.2712C89.125 29.2712 91.3151 27.8862 91.3151 25.9256C91.3151 23.5514 87.9244 22.1184 84.9184 20.8279C81.8962 19.4893 78.5377 17.9279 78.5377 13.8979C78.5377 9.86784 82.2004 6.76288 86.8383 6.76288C90.5153 6.76288 93.2673 8.53103 94.323 11.3508L91.3169 13.422C90.5171 11.6859 88.7421 10.7145 86.8723 10.7145C84.505 10.7145 82.6191 12.1796 82.6191 13.9959C82.6191 16.0029 85.0025 16.7194 88.1355 18.058C92.2134 19.8422 95.3786 21.8011 95.3786 25.8472C95.3786 30.403 91.4135 33.3333 86.1834 33.3333C81.9463 33.3333 78.7309 31.3584 77.2601 28.3942Z" fill="white"/>
<path d="M97.3594 28.3942L100.557 26.1163C101.707 28.1233 103.851 29.2712 106.329 29.2712C109.224 29.2712 111.414 27.8862 111.414 25.9256C111.414 23.5514 108.024 22.1184 105.018 20.8279C101.996 19.4893 98.637 17.9279 98.637 13.8979C98.637 9.86784 102.302 6.76288 106.939 6.76288C110.616 6.76288 113.368 8.53103 114.424 11.3508L111.418 13.422C110.618 11.6859 108.843 10.7145 106.973 10.7145C104.606 10.7145 102.72 12.1796 102.72 13.9959C102.72 16.0029 105.104 16.7194 108.237 18.058C112.314 19.8422 115.48 21.8011 115.48 25.8472C115.48 30.403 111.515 33.3333 106.284 33.3333C102.047 33.3333 98.832 31.3584 97.3612 28.3942H97.3594Z" fill="white"/>
<path d="M117.716 20.0954C117.716 12.7679 123.696 6.77899 131.038 6.77899C138.379 6.77899 144.375 12.7679 144.375 20.0954C144.375 27.4229 138.363 33.3173 131.023 33.3173C123.684 33.3173 117.718 27.3605 117.718 20.0954H117.716ZM140.28 20.0633C140.28 14.9817 136.105 10.8393 131.02 10.8393C125.935 10.8393 121.792 14.9817 121.792 20.0633C121.792 25.145 125.935 29.2392 131.02 29.2392C136.105 29.2392 140.28 25.1129 140.28 20.0633Z" fill="white"/>
<path d="M173.333 6.66669V32.902H169.288V18.6623L160.733 32.4724H160.701L152.13 18.6463V32.9038H148.084V6.66669H148.389L160.717 25.3357L173.029 6.66669H173.333Z" fill="white"/>
</svg>
