<svg width="36" height="68" viewBox="0 0 36 68" fill="none" xmlns="http://www.w3.org/2000/svg">
<path d="M10.7891 46.0781L20.125 46.0391C20.0859 45.4531 20.0859 44.9453 20.0859 44.4375C20.2422 37.2109 25.5938 35.6094 30.125 31.3516C33.5625 27.9922 35.3203 23.7734 35.3203 18.0703C35.3203 9.78906 27.3906 0.960938 16.1016 0.960938C6.375 0.960938 1.60938 6.74219 0.046875 9.67188L3.60156 17.4844C5.35938 13.3047 10.3984 10.5312 15.5938 10.5312C21.8438 10.5312 26.2578 14.2031 26.2578 19.8672C26.2578 22.8359 24.6172 25.6875 22.7422 27.1328C15.5938 32.6797 10.7891 37.6016 10.7891 44.9453V46.0781ZM15.5938 67.7969C19.1875 67.7969 22.1953 64.9453 22.1953 61.3125C22.1953 57.7188 19.1875 54.7109 15.5156 54.7109C11.9219 54.7109 8.95312 57.5625 8.95312 61.1953C8.95312 64.7891 11.8828 67.7969 15.5938 67.7969Z" fill="white"/>
</svg>
