<svg width="24" height="24" viewBox="0 0 24 24" fill="none" xmlns="http://www.w3.org/2000/svg">
<path d="M15.4527 4.4527L17 3.81179L18.5473 4.4527L19.1882 6L18.5473 7.5473L17 8.18821L15.4527 7.5473L14.8118 6L15.4527 4.4527Z" stroke="white" stroke-width="1.5"/>
<path d="M4.4527 10.4527L6 9.81179L7.5473 10.4527L8.18821 12L7.5473 13.5473L6 14.1882L4.4527 13.5473L3.81179 12L4.4527 10.4527Z" stroke="white" stroke-width="1.5"/>
<path d="M15.4527 16.4527L17 15.8118L18.5473 16.4527L19.1882 18L18.5473 19.5473L17 20.1882L15.4527 19.5473L14.8118 18L15.4527 16.4527Z" stroke="white" stroke-width="1.5"/>
<path d="M15.5 17L8 13M8 11L15 7" stroke="white" stroke-width="1.5"/>
</svg>
