<?xml version="1.0" encoding="UTF-8"?><!DOCTYPE svg PUBLIC "-//W3C//DTD SVG 1.1//EN" "http://www.w3.org/Graphics/SVG/1.1/DTD/svg11.dtd"><svg xmlns="http://www.w3.org/2000/svg" xmlns:xlink="http://www.w3.org/1999/xlink"><defs/><symbol id="bottom-arrow" viewBox="0 0 45 14">
<path d="M1.5 2L22.5 12L43.5 2" stroke="#7B8863" stroke-width="3"/>
</symbol><symbol id="delete" viewBox="0 0 10 10">
<path d="M1 1L9 9"/>
<path d="M9 1L1 9"/>
</symbol><symbol id="done" viewBox="0 0 24 24">
<path d="M3 12.129L8.6 18L21 5" stroke="white"/>
</symbol><symbol id="heart" viewBox="0 0 24 24">
<path d="M1 7.86486L4.34783 3H9.13043L12 6.40541L14.8696 3H19.8913L23 7.86486L21.5652 14.6757L12 21L2.43478 14.6757L1 7.86486Z" stroke="#FFCBF1" stroke-width="1.5"/>
</symbol><symbol id="left-arrow" viewBox="0 0 19 18">
<path d="M19 8.00003H2V10H19V8.00003ZM10.4211 16L3.42105 9.00003L10.4211 2.00003L9 0.578979L0.578947 9.00003L9 17.4211L10.4211 16Z" fill="#8E9A78"/>
</symbol><symbol id="login" viewBox="0 0 24 24">
<path d="M10.5 17L15.5 17L15.5 7L10.5 7" stroke="white"/>
<path d="M5 12L11 12" stroke="white"/>
<path d="M8 8.5L11.5 12L8 15.5" stroke="white"/>
</symbol><symbol id="logo" viewBox="0 0 180 40">
<path d="M28.7109 25.0808C28.7109 29.0146 25.721 32.902 20.6036 32.902H6.66669V7.22461H17.9966C22.4412 7.22461 25.449 10.4098 25.449 13.8195C25.449 16.5912 23.5148 18.4395 22.5539 18.4395C25.449 18.4395 28.7109 21.0829 28.7109 25.0826V25.0808ZM10.6962 11.1424V17.5466L18.188 17.5305C20.1867 17.5466 21.6575 16.1759 21.6575 14.3453C21.6575 12.5148 20.0579 11.1441 18.2345 11.1441H10.6962V11.1424ZM24.7619 24.8099C24.7619 22.8671 23.0997 21.0829 20.1724 21.0829L10.6962 21.0989V28.9683H20.235C22.5539 28.9683 24.7601 27.2964 24.7601 24.8099H24.7619Z" fill="white"/>
<path d="M47.4683 28.888V32.902H31.9246V7.22461H35.9702V28.888H47.4683Z" fill="white"/>
<path d="M48.3789 20.0954C48.3789 12.7679 54.3606 6.77722 61.7003 6.77722C69.04 6.77722 75.0378 12.7661 75.0378 20.0936C75.0378 27.4211 69.0257 33.3155 61.686 33.3155C54.3462 33.3155 48.3807 27.3587 48.3807 20.0936L48.3789 20.0954ZM70.9421 20.0633C70.9421 14.9817 66.7676 10.8393 61.6824 10.8393C56.5972 10.8393 52.4549 14.9817 52.4549 20.0633C52.4549 25.145 56.5972 29.2392 61.6824 29.2392C66.7676 29.2392 70.9421 25.1129 70.9421 20.0633Z" fill="white"/>
<path d="M77.2601 28.3942L80.4576 26.1163C81.6081 28.1233 83.7517 29.2712 86.2299 29.2712C89.125 29.2712 91.3151 27.8862 91.3151 25.9256C91.3151 23.5514 87.9244 22.1184 84.9184 20.8279C81.8962 19.4893 78.5377 17.9279 78.5377 13.8979C78.5377 9.86784 82.2004 6.76288 86.8383 6.76288C90.5153 6.76288 93.2673 8.53103 94.323 11.3508L91.3169 13.422C90.5171 11.6859 88.7421 10.7145 86.8723 10.7145C84.505 10.7145 82.6191 12.1796 82.6191 13.9959C82.6191 16.0029 85.0025 16.7194 88.1355 18.058C92.2134 19.8422 95.3786 21.8011 95.3786 25.8472C95.3786 30.403 91.4135 33.3333 86.1834 33.3333C81.9463 33.3333 78.7309 31.3584 77.2601 28.3942Z" fill="white"/>
<path d="M97.3594 28.3942L100.557 26.1163C101.707 28.1233 103.851 29.2712 106.329 29.2712C109.224 29.2712 111.414 27.8862 111.414 25.9256C111.414 23.5514 108.024 22.1184 105.018 20.8279C101.996 19.4893 98.637 17.9279 98.637 13.8979C98.637 9.86784 102.302 6.76288 106.939 6.76288C110.616 6.76288 113.368 8.53103 114.424 11.3508L111.418 13.422C110.618 11.6859 108.843 10.7145 106.973 10.7145C104.606 10.7145 102.72 12.1796 102.72 13.9959C102.72 16.0029 105.104 16.7194 108.237 18.058C112.314 19.8422 115.48 21.8011 115.48 25.8472C115.48 30.403 111.515 33.3333 106.284 33.3333C102.047 33.3333 98.832 31.3584 97.3612 28.3942H97.3594Z" fill="white"/>
<path d="M117.716 20.0954C117.716 12.7679 123.696 6.77899 131.038 6.77899C138.379 6.77899 144.375 12.7679 144.375 20.0954C144.375 27.4229 138.363 33.3173 131.023 33.3173C123.684 33.3173 117.718 27.3605 117.718 20.0954H117.716ZM140.28 20.0633C140.28 14.9817 136.105 10.8393 131.02 10.8393C125.935 10.8393 121.792 14.9817 121.792 20.0633C121.792 25.145 125.935 29.2392 131.02 29.2392C136.105 29.2392 140.28 25.1129 140.28 20.0633Z" fill="white"/>
<path d="M173.333 6.66669V32.902H169.288V18.6623L160.733 32.4724H160.701L152.13 18.6463V32.9038H148.084V6.66669H148.389L160.717 25.3357L173.029 6.66669H173.333Z" fill="white"/>
</symbol><symbol id="menu-out" viewBox="0 0 24 24">
<path d="M4.63599 5L18.7781 19.1421" stroke="white"/>
<path d="M18.7781 5L4.63594 19.1421" stroke="white"/>
</symbol><symbol id="menu" viewBox="0 0 24 24">
<path d="M3 4H21V6H3V4ZM3 11H21V13H3V11ZM3 18H21V20H3V18Z" fill="#8E9A78"/>
</symbol><symbol id="pencil" viewBox="0 0 24 24">
<path d="M17.6673 8.33274L19.7886 6.21142L17.6673 4.0901L15.5459 6.21142M17.6673 8.33274L8.12132 17.8787L4.93934 18.9393L6 15.7574L15.5459 6.21142M17.6673 8.33274L15.5459 6.21142" stroke="#BCBCBC"/>
</symbol><symbol id="polygon" viewBox="0 0 96 96">
<path d="M48 0L72 6.43078L89.5692 24L96 48L89.5692 72L72 89.5692L48 96L24 89.5692L6.43078 72L0 48L6.43078 24L24 6.43078L48 0Z" fill="#333A29"/>
</symbol><symbol id="question-mark" viewBox="0 0 36 68">
<path d="M10.7891 46.0781L20.125 46.0391C20.0859 45.4531 20.0859 44.9453 20.0859 44.4375C20.2422 37.2109 25.5938 35.6094 30.125 31.3516C33.5625 27.9922 35.3203 23.7734 35.3203 18.0703C35.3203 9.78906 27.3906 0.960938 16.1016 0.960938C6.375 0.960938 1.60938 6.74219 0.046875 9.67188L3.60156 17.4844C5.35938 13.3047 10.3984 10.5312 15.5938 10.5312C21.8438 10.5312 26.2578 14.2031 26.2578 19.8672C26.2578 22.8359 24.6172 25.6875 22.7422 27.1328C15.5938 32.6797 10.7891 37.6016 10.7891 44.9453V46.0781ZM15.5938 67.7969C19.1875 67.7969 22.1953 64.9453 22.1953 61.3125C22.1953 57.7188 19.1875 54.7109 15.5156 54.7109C11.9219 54.7109 8.95312 57.5625 8.95312 61.1953C8.95312 64.7891 11.8828 67.7969 15.5938 67.7969Z" fill="white"/>
</symbol><symbol id="right-arrow-2" viewBox="0 0 24 24">
<path d="M4 12H20M20 12L13.697 6M20 12L13.697 18" stroke="#BCBCBC"/>
</symbol><symbol id="right-arrow" viewBox="0 0 24 24">
<path d="M3 11H20V13H3V11ZM11.5789 19L18.5789 12L11.5789 4.99997L13 3.57892L21.4211 12L13 20.421L11.5789 19Z"/>
</symbol><symbol id="search-green-100" viewBox="0 0 24 24">
<path d="M17 17L22 22" stroke="#8E9A78" stroke-width="1.5"/>
<path d="M11.5 3L17.5104 5.48959L20 11.5L17.5104 17.5104L11.5 20L5.48959 17.5104L3 11.5L5.48959 5.48959L11.5 3Z" stroke="#8E9A78" stroke-width="1.5"/>
</symbol><symbol id="search" viewBox="0 0 24 24">
<path d="M17 17L22 22" stroke="white" stroke-width="1.5"/>
<path d="M11.5 3L17.5104 5.48959L20 11.5L17.5104 17.5104L11.5 20L5.48959 17.5104L3 11.5L5.48959 5.48959L11.5 3Z" stroke="white" stroke-width="1.5"/>
</symbol><symbol id="share" viewBox="0 0 24 24">
<path d="M15.4527 4.4527L17 3.81179L18.5473 4.4527L19.1882 6L18.5473 7.5473L17 8.18821L15.4527 7.5473L14.8118 6L15.4527 4.4527Z" stroke="white" stroke-width="1.5"/>
<path d="M4.4527 10.4527L6 9.81179L7.5473 10.4527L8.18821 12L7.5473 13.5473L6 14.1882L4.4527 13.5473L3.81179 12L4.4527 10.4527Z" stroke="white" stroke-width="1.5"/>
<path d="M15.4527 16.4527L17 15.8118L18.5473 16.4527L19.1882 18L18.5473 19.5473L17 20.1882L15.4527 19.5473L14.8118 18L15.4527 16.4527Z" stroke="white" stroke-width="1.5"/>
<path d="M15.5 17L8 13M8 11L15 7" stroke="white" stroke-width="1.5"/>
</symbol><symbol id="trash-can" viewBox="0 0 24 24">
<rect x="6" y="7" width="12" height="13" stroke-width="1.5"/>
<path d="M4 7L20 7" stroke-width="1.5"/>
<path d="M8 4L16 4" stroke-width="1.5"/>
<path d="M10 11L10 16" stroke-width="1.5"/>
<path d="M14 11L14 16" stroke-width="1.5"/>
</symbol></svg>